<svg width="70" height="50" xmlns="http://www.w3.org/2000/svg">
    <path
        d="M22.673.118c-1.656.21-3.243 1.405-3.94 2.952-.315.674-.356.998-.397 2.488l-.055 1.715-7.949.042-7.962.042-.657.394C.975 8.2.318 9.044.113 9.817c-.096.337-.123 6.059-.11 16.18l.041 15.645 5.664-11.808c3.12-6.48 5.87-12.117 6.102-12.497.985-1.588 2.941-3.092 4.952-3.823l1.068-.394 18.715-.042 18.702-.028v-1.56c0-2.221-.465-3.135-1.984-3.866l-.684-.337H37.092l-.068-1.589c-.055-1.152-.15-1.785-.37-2.375-.642-1.701-2.284-2.952-4.2-3.22-1.108-.14-8.673-.14-9.781.015zm10.096 3.655c.67.407.862.927.862 2.319v1.195h-12.04v-.97c0-.534.042-1.167.083-1.406.11-.52.739-1.237 1.19-1.321.164-.028 2.367-.07 4.884-.084 4.323-.015 4.61 0 5.021.267zM17.83 16.79c-1.013.308-2.504 1.405-3.037 2.234-.247.394-3.42 6.874-7.046 14.408C.674 48.15.756 47.982 1.276 48.98c.136.253.465.577.738.717.466.24 1.697.253 24.777.295 16.006.028 24.653-.014 25.35-.098 1.464-.21 2.436-.703 3.517-1.828l.889-.927 6.676-13.959c3.94-8.209 6.718-14.169 6.758-14.492.11-.801-.273-1.532-.97-1.856-.534-.253-1.52-.267-25.53-.253-21.684.014-25.063.043-25.651.211z"
        fill="#78B1EA" />
</svg>